<svg xmlns="http://www.w3.org/2000/svg" width="111.85" height="34.669" viewBox="0 0 111.85 34.669" fill="#fff">
    <g id="Group_312252" data-name="Group 312252" transform="translate(-75.651 -77.917)">
        <g id="Group_126651" data-name="Group 126651" transform="translate(75.651 77.917)">
            <path id="Path_291174" data-name="Path 291174" d="M4.138-29.365a10.4,10.4,0,0,1,3.71-4.412,10.637,10.637,0,0,1,6.072-1.649,9.83,9.83,0,0,1,5.432,1.448,9.255,9.255,0,0,1,3.423,3.944,13.067,13.067,0,0,1,1.17,5.615q0,.847-.066,1.671t-.155,1.315H9.062a4.866,4.866,0,0,0,1.855,3.877,7.416,7.416,0,0,0,4.416,1.2,17.041,17.041,0,0,0,6.05-1.114,10.4,10.4,0,0,1,.839,2.139,11.04,11.04,0,0,1,.4,2.674,21.345,21.345,0,0,1-7.773,1.337,13.624,13.624,0,0,1-6.889-1.537,9.151,9.151,0,0,1-3.864-4.233A14.767,14.767,0,0,1,2.88-23.215,14.664,14.664,0,0,1,4.138-29.365Zm12.719.067a3.7,3.7,0,0,0-3.025-1.315,4.335,4.335,0,0,0-3.356,1.248,5.89,5.89,0,0,0-1.369,3.52h8.921A5.644,5.644,0,0,0,16.857-29.3Zm8.281-5.548a12.62,12.62,0,0,1,1.965-.267q.905-.045,1.568-.045.883,0,1.767.045a9.052,9.052,0,0,1,1.634.223l4.99,17.156,4.9-17.156a19.163,19.163,0,0,1,3.268-.267q.662,0,1.524.045a13.628,13.628,0,0,1,1.965.267L40.065-11.852q-.839.134-1.767.2t-1.546.067q-.662,0-1.5-.067a10.482,10.482,0,0,1-1.59-.245Zm47.329-.045a9.8,9.8,0,0,1,1.789-.245q.773-.022,1.435-.022.883,0,1.811.045a9.2,9.2,0,0,1,1.678.223l4.77,20.1,5.388-20.1a16.611,16.611,0,0,1,3-.267q.662,0,1.413.022a11.379,11.379,0,0,1,1.855.245L87.084-6.415q-1.016,3.387-2.893,4.523A8.671,8.671,0,0,1,79.62-.756a14.468,14.468,0,0,1-2.23-.156,17.808,17.808,0,0,1-1.965-.423,2,2,0,0,1-.044-.379v-.334a8.224,8.224,0,0,1,.243-2.028,15.041,15.041,0,0,1,.6-1.849,7.181,7.181,0,0,0,1.06.245,7.975,7.975,0,0,0,1.325.111,6.539,6.539,0,0,0,1.413-.156,2.524,2.524,0,0,0,1.347-.914,6.35,6.35,0,0,0,1.082-2.451l.751-2.763q-.486.045-1.082.067t-1.214.022q-.486,0-.927-.022t-.795-.067Zm28.154,1.381a10.249,10.249,0,0,1,6.558-1.916,19.627,19.627,0,0,1,6.8,1.248,12.259,12.259,0,0,1-.442,2.406,11.612,11.612,0,0,1-.839,2.184,17.342,17.342,0,0,0-2.341-.78,10.628,10.628,0,0,0-2.694-.334,4.849,4.849,0,0,0-2.341.468,1.585,1.585,0,0,0-.839,1.493,1.542,1.542,0,0,0,.6,1.381,6.934,6.934,0,0,0,1.7.758l2.517.758a9.287,9.287,0,0,1,3.953,2.139q1.479,1.426,1.479,4.59a6.887,6.887,0,0,1-1.214,3.966,8.179,8.179,0,0,1-3.445,2.807,12.778,12.778,0,0,1-5.366,1.025,21.412,21.412,0,0,1-3.643-.267,17.413,17.413,0,0,1-3.334-.98,15.388,15.388,0,0,1,1.281-4.813,18.212,18.212,0,0,0,2.76.869,12.48,12.48,0,0,0,2.716.29,7.845,7.845,0,0,0,1.789-.223,4.356,4.356,0,0,0,1.656-.758,1.788,1.788,0,0,0,.707-1.515,1.776,1.776,0,0,0-.64-1.537,6.153,6.153,0,0,0-1.789-.824l-2.738-.8A8.723,8.723,0,0,1,99.6-23.995a5.751,5.751,0,0,1-1.391-4.211A6.4,6.4,0,0,1,100.62-33.509Z" transform="translate(-2.88 35.425)"/>
        </g>
        <g id="Group_312255" data-name="Group 312255" transform="translate(122.991 77.917)">
            <path id="Path_291174-2" data-name="Path 291174" d="M4.138-29.365a10.4,10.4,0,0,1,3.71-4.412,10.637,10.637,0,0,1,6.072-1.649,9.83,9.83,0,0,1,5.432,1.448,9.255,9.255,0,0,1,3.423,3.944,13.067,13.067,0,0,1,1.17,5.615q0,.847-.066,1.671t-.155,1.315H9.062a4.866,4.866,0,0,0,1.855,3.877,7.416,7.416,0,0,0,4.416,1.2,17.041,17.041,0,0,0,6.05-1.114,10.4,10.4,0,0,1,.839,2.139,11.04,11.04,0,0,1,.4,2.674,21.345,21.345,0,0,1-7.773,1.337,13.624,13.624,0,0,1-6.889-1.537,9.151,9.151,0,0,1-3.864-4.233A14.767,14.767,0,0,1,2.88-23.215,14.664,14.664,0,0,1,4.138-29.365Zm12.719.067a3.7,3.7,0,0,0-3.025-1.315,4.335,4.335,0,0,0-3.356,1.248,5.89,5.89,0,0,0-1.369,3.52h8.921A5.644,5.644,0,0,0,16.857-29.3Z" transform="translate(-2.88 35.425)"/>
        </g>
    </g>
</svg>